{"title":"Galavant.S02E02.480p.WEB-DL.x264-itunes.mp4","uid":13149336,"size":328051608,"categoryP":"video","categoryS":"tv_shows","magnet":"?xt=urn:btih:36e4fb5387b009ac6f2c2c1eb09fe37c2ffd2e27&amp;dn=Galavant.S02E02.480p.WEB-DL.x264-itunes.mp4&amp;tr=udp%3A%2F%2Ftracker.leechers-paradise.org%3A6969&amp;tr=udp%3A%2F%2Fzer0day.ch%3A1337&amp;tr=udp%3A%2F%2Fopen.demonii.com%3A1337&amp;tr=udp%3A%2F%2Ftracker.coppersurfer.tk%3A6969&amp;tr=udp%3A%2F%2Fexodus.desync.com%3A6969","seeders":0,"leechers":0,"uploader":null,"files":1,"time":1452041599,"description":"Description\r\nConverted from itunes m4v without re-encoding!\r\n\r\nSame great quality as itunes SD file!\r\n\r\nFormat : MPEG-4\r\nFormat profile : Base Media / Version 2\r\nCodec ID : mp42\r\nFile size : 313 MiB\r\nDuration : 21mn 29s\r\nOverall bit rate mode : Variable\r\nOverall bit rate : 2 034 Kbps\r\nSeason : 2\r\nMovie name : Galavant\r\nAlbum/Sorted by : Galavant, Season 2\r\nPart : 2\r\nPart/Position : 1\r\nPart/Total : 1\r\nTrack name/Position : 2\r\nTrack name/Total : 3\r\nPerformer : Galavant\r\nPerformer/Sorted by : Galavant\r\nContentType : TV Show\r\nDescription : Galavant and Richard see a fortune teller who is able to connect Galavant to Isabella using a\r\nRecorded date : UTC 2016-01-03 08:00:00\r\nEncoded date : UTC 2016-01-04 14:09:50\r\nTagged date : UTC 2016-01-04 14:11:17\r\nCover : Yes\r\nRating : None\r\nPart_ID : 202\r\nTitle/Sort : World's Best Kiss\r\nLongDescription : Galavant and Richard see a fortune teller who is able to connect Galavant to Isabella using a crystal ball. Isabella receives Galavant's &quot;call&quot; as she is plotting her escape from Hortensia. Unfortunately, it's a &quot;bad connection,&quot; and Isabella hears only every other word.\r\n\r\nVideo\r\nID : 2\r\nFormat : AVC\r\nFormat/Info : Advanced Video Codec\r\nFormat profile :   \r\nFormat settings, CABAC : No\r\nFormat settings, ReFrames : 1 frame\r\nFormat settings, GOP : M=1, N=119\r\nCodec ID : avc1\r\nCodec ID/Info : Advanced Video Coding\r\nDuration : 21mn 29s\r\nBit rate : 1 523 Kbps\r\nWidth : 640 pixels\r\nHeight : 480 pixels\r\nDisplay aspect ratio : 16:9\r\nFrame rate mode : Constant\r\nFrame rate : 23.976 fps\r\nColor space : YUV\r\nChroma subsampling : 4:2:0\r\nBit depth : 8 bits\r\nScan type : Progressive\r\nBits/(Pixel*Frame) : 0.207\r\nStream size : 234 MiB (75%)\r\nLanguage : English\r\nEncoded date : UTC 2016-01-04 14:10:41\r\nTagged date : UTC 2016-01-04 14:10:54\r\nColor primaries : BT.601 NTSC\r\nTransfer characteristics : BT.709\r\nMatrix coefficients : BT.601\r\n\r\nAudio #1\r\nID : 1\r\nFormat : AAC\r\nFormat/Info : Advanced Audio Codec\r\nFormat profile : LC\r\nCodec ID : 40\r\nDuration : 21mn 29s\r\nBit rate mode : Variable\r\nBit rate : 124 Kbps\r\nMaximum bit rate : 194 Kbps\r\nChannel(s) : 2 channels\r\nChannel positions : Front: L R\r\nSampling rate : 44.1 KHz\r\nCompression mode : Lossy\r\nStream size : 19.0 MiB (6%)\r\nLanguage : English\r\nEncoded date : UTC 2016-01-04 14:09:51\r\nTagged date : UTC 2016-01-04 14:10:41\r\n\r\nAudio #2\r\nID : 4\r\nFormat : AC-3\r\nFormat/Info : Audio Coding 3\r\nMode extension : CM (complete main)\r\nFormat settings, Endianness : Big\r\nCodec ID : ac-3\r\nDuration : 21mn 29s\r\nBit rate mode : Constant\r\nBit rate : 384 Kbps\r\nChannel(s) : 6 channels\r\nChannel positions : Front: L C R, Side: L R, LFE\r\nSampling rate : 48.0 KHz\r\nBit depth : 16 bits\r\nCompression mode : Lossy\r\nStream size : 59.0 MiB (19%)\r\nLanguage : English\r\nEncoded date : UTC 2016-01-04 14:10:54\r\nTagged date : UTC 2016-01-04 14:11:16\r\n\r\nText\r\nID : 3-CC1\r\nFormat : EIA-608\r\nMuxing mode : Final Cut\r\nCodec ID : c608\r\nDuration : 21mn 21s\r\nBit rate mode : Constant\r\nStream size : 0.00 Byte (0%)\r\nLanguage : English\r\nEncoded date : UTC 2016-01-04 14:10:54\r\nTagged date : UTC 2016-01-04 14:10:54","torrent":{"xt":"urn:btih:36e4fb5387b009ac6f2c2c1eb09fe37c2ffd2e27","amp;dn":"Galavant.S02E02.480p.WEB-DL.x264-itunes.mp4","amp;tr":["udp%3A%2F%2Ftracker.leechers-paradise.org%3A6969","udp%3A%2F%2Fzer0day.ch%3A1337","udp%3A%2F%2Fopen.demonii.com%3A1337","udp%3A%2F%2Ftracker.coppersurfer.tk%3A6969","udp%3A%2F%2Fexodus.desync.com%3A6969"],"infoHash":"36e4fb5387b009ac6f2c2c1eb09fe37c2ffd2e27","infoHashBuffer":{"type":"Buffer","data":[54,228,251,83,135,176,9,172,111,44,44,30,176,159,227,124,47,253,46,39]},"announce":[],"urlList":[]}}